<svg xmlns="http://www.w3.org/2000/svg" viewBox="0 0 840 322" width="100%">
<defs>
  <linearGradient id="bg" x1="0" y1="0" x2="0" y2="1">
    <stop offset="0%" stop-color="#0d1117"/>
    <stop offset="100%" stop-color="#0d1f30"/>
  </linearGradient>
  <filter id="glow" x="-22%" y="-22%" width="144%" height="144%">
    <feGaussianBlur in="SourceAlpha" stdDeviation="4" result="blur"/>
    <feFlood flood-color="#1f6feb" flood-opacity="0.45" result="color"/>
    <feComposite in="color" in2="blur" operator="in" result="shadow"/>
    <feMerge><feMergeNode in="shadow"/><feMergeNode in="SourceGraphic"/></feMerge>
  </filter>
  <style>
    .t { font-family:'SFMono-Regular',Consolas,'Liberation Mono',Menlo,monospace; }

    /* 10-second cycle — each card "on" for 1 second via negative delay */
    @keyframes pulse {
      0%,100%{ opacity:0 }
      1%     { opacity:1 }
      9%     { opacity:1 }
      10%    { opacity:0 }
    }
    .a0{ animation:pulse 10s  0s linear infinite }
    .a1{ animation:pulse 10s -9s linear infinite }
    .a2{ animation:pulse 10s -8s linear infinite }
    .a3{ animation:pulse 10s -7s linear infinite }
    .a4{ animation:pulse 10s -6s linear infinite }
    .a5{ animation:pulse 10s -5s linear infinite }
    .a6{ animation:pulse 10s -4s linear infinite }
    .a7{ animation:pulse 10s -3s linear infinite }
    .a8{ animation:pulse 10s -2s linear infinite }
    .a9{ animation:pulse 10s -1s linear infinite }

    /* Spinner on active card icon */
    @keyframes spin { from{transform:rotate(0deg)} to{transform:rotate(360deg)} }
    .sp {
      animation: spin 0.9s linear infinite;
      transform-box: fill-box;
      transform-origin: center;
    }

    /* Progress bar */
    @keyframes prog { from{width:0} to{width:798px} }
    .pb { animation:prog 10s linear infinite }

    /* Header status dot sonar ring */
    @keyframes sonar { 0%{r:5;opacity:.8} 100%{r:14;opacity:0} }
    .sr { animation:sonar 1.6s ease-out infinite }

    /* Footer blink */
    @keyframes blk { 0%,100%{opacity:.4} 50%{opacity:1} }
    .bl { animation:blk 2.5s ease-in-out infinite }
  </style>
</defs>

<!-- Outer border card -->
<rect width="840" height="322" rx="10" fill="#0d1117" stroke="#30363d" stroke-width="1"/>

<!-- ══ HEADER BAR ══ -->
<rect x="0" y="0" width="840" height="50" rx="10" fill="#161b22"/>
<rect x="0" y="40" width="840" height="10" fill="#161b22"/>
<line x1="0" y1="50" x2="840" y2="50" stroke="#30363d" stroke-width="1"/>

<!-- Workflow icon (3-circle Actions logo) -->
<circle cx="27" cy="25" r="11" fill="none" stroke="#8b949e" stroke-width="1.5"/>
<circle cx="27" cy="25" r="4.5" fill="#8b949e"/>
<circle cx="27" cy="12.5" r="3" fill="#8b949e"/>
<circle cx="36.5" cy="31" r="3" fill="#8b949e"/>
<circle cx="17.5" cy="31" r="3" fill="#8b949e"/>

<!-- Workflow title + meta -->
<text x="48" y="22" class="t" fill="#e6edf3" font-size="13" font-weight="bold">TechPulse Daily Digest</text>
<text x="48" y="39" class="t" fill="#6e7681" font-size="9">GitHub Actions  ·  schedule (cron)  ·  10 automated jobs  ·  commits every day at 06:00–10:15 UTC</text>

<!-- Running status indicator -->
<circle cx="805" cy="20" r="5" fill="#3fb950"/>
<circle cx="805" cy="20" r="5" fill="#3fb950" class="sr"/>
<text x="798" y="37" class="t" text-anchor="end" fill="#3fb950" font-size="9" font-weight="bold">● Running</text>

<!-- ══ MAIN BACKGROUND ══ -->
<rect x="0" y="50" width="840" height="272" fill="url(#bg)"/>

<!-- ═══════ ROW 1 CARDS (top=62) ═══════ -->

<!-- CARD 0 · Tech News · #58a6ff -->
<rect x="21"  y="62" width="150" height="74" rx="6" fill="#161b22" stroke="#21262d" stroke-width="1"/>
<rect x="21"  y="62" width="3"   height="74" rx="1.5" fill="#58a6ff" opacity=".15"/>
<circle cx="160" cy="72" r="3.5" fill="#21262d"/>
<text x="96"  y="89"  text-anchor="middle" font-size="18" font-family="sans-serif">📰</text>
<text x="96"  y="107" text-anchor="middle" class="t" fill="#6e7681" font-size="9">Tech News</text>
<text x="96"  y="123" text-anchor="middle" class="t" fill="#30363d" font-size="8">06:00 UTC</text>
<g class="a0" filter="url(#glow)">
  <rect x="21"  y="62" width="150" height="74" rx="6" fill="#091829" stroke="#58a6ff" stroke-width="1.5"/>
  <rect x="21"  y="62" width="3"   height="74" rx="1.5" fill="#58a6ff"/>
  <text x="96"  y="89"  text-anchor="middle" font-size="18" font-family="sans-serif">📰</text>
  <text x="96"  y="107" text-anchor="middle" class="t" fill="#e6edf3" font-size="9" font-weight="bold">Tech News</text>
  <text x="96"  y="123" text-anchor="middle" class="t" fill="#8b949e" font-size="8">06:00 UTC</text>
  <circle cx="160" cy="72" r="4.5" fill="#3fb950"/>
  <circle cx="160" cy="72" r="9"   fill="#3fb950" opacity=".25"/>
  <circle cx="96" cy="80" r="10" fill="none" stroke="#58a6ff" stroke-width="1.5" stroke-dasharray="16 47" stroke-linecap="round" class="sp"/>
</g>
<text x="175" y="100" text-anchor="middle" fill="#21262d" font-size="13" class="t">›</text>

<!-- CARD 1 · Trending · #ff7b72 -->
<rect x="183" y="62" width="150" height="74" rx="6" fill="#161b22" stroke="#21262d" stroke-width="1"/>
<rect x="183" y="62" width="3"   height="74" rx="1.5" fill="#ff7b72" opacity=".15"/>
<circle cx="322" cy="72" r="3.5" fill="#21262d"/>
<text x="258" y="89"  text-anchor="middle" font-size="18" font-family="sans-serif">🔥</text>
<text x="258" y="107" text-anchor="middle" class="t" fill="#6e7681" font-size="9">Trending</text>
<text x="258" y="123" text-anchor="middle" class="t" fill="#30363d" font-size="8">06:15 UTC</text>
<g class="a1" filter="url(#glow)">
  <rect x="183" y="62" width="150" height="74" rx="6" fill="#091829" stroke="#ff7b72" stroke-width="1.5"/>
  <rect x="183" y="62" width="3"   height="74" rx="1.5" fill="#ff7b72"/>
  <text x="258" y="89"  text-anchor="middle" font-size="18" font-family="sans-serif">🔥</text>
  <text x="258" y="107" text-anchor="middle" class="t" fill="#e6edf3" font-size="9" font-weight="bold">Trending</text>
  <text x="258" y="123" text-anchor="middle" class="t" fill="#8b949e" font-size="8">06:15 UTC</text>
  <circle cx="322" cy="72" r="4.5" fill="#3fb950"/>
  <circle cx="322" cy="72" r="9"   fill="#3fb950" opacity=".25"/>
  <circle cx="258" cy="80" r="10" fill="none" stroke="#ff7b72" stroke-width="1.5" stroke-dasharray="16 47" stroke-linecap="round" class="sp"/>
</g>
<text x="337" y="100" text-anchor="middle" fill="#21262d" font-size="13" class="t">›</text>

<!-- CARD 2 · AI Research · #3fb950 -->
<rect x="345" y="62" width="150" height="74" rx="6" fill="#161b22" stroke="#21262d" stroke-width="1"/>
<rect x="345" y="62" width="3"   height="74" rx="1.5" fill="#3fb950" opacity=".15"/>
<circle cx="484" cy="72" r="3.5" fill="#21262d"/>
<text x="420" y="89"  text-anchor="middle" font-size="18" font-family="sans-serif">🤖</text>
<text x="420" y="107" text-anchor="middle" class="t" fill="#6e7681" font-size="9">AI Research</text>
<text x="420" y="123" text-anchor="middle" class="t" fill="#30363d" font-size="8">07:00 UTC</text>
<g class="a2" filter="url(#glow)">
  <rect x="345" y="62" width="150" height="74" rx="6" fill="#091829" stroke="#3fb950" stroke-width="1.5"/>
  <rect x="345" y="62" width="3"   height="74" rx="1.5" fill="#3fb950"/>
  <text x="420" y="89"  text-anchor="middle" font-size="18" font-family="sans-serif">🤖</text>
  <text x="420" y="107" text-anchor="middle" class="t" fill="#e6edf3" font-size="9" font-weight="bold">AI Research</text>
  <text x="420" y="123" text-anchor="middle" class="t" fill="#8b949e" font-size="8">07:00 UTC</text>
  <circle cx="484" cy="72" r="4.5" fill="#3fb950"/>
  <circle cx="484" cy="72" r="9"   fill="#3fb950" opacity=".25"/>
  <circle cx="420" cy="80" r="10" fill="none" stroke="#3fb950" stroke-width="1.5" stroke-dasharray="16 47" stroke-linecap="round" class="sp"/>
</g>
<text x="499" y="100" text-anchor="middle" fill="#21262d" font-size="13" class="t">›</text>

<!-- CARD 3 · Challenge · #e3b341 -->
<rect x="507" y="62" width="150" height="74" rx="6" fill="#161b22" stroke="#21262d" stroke-width="1"/>
<rect x="507" y="62" width="3"   height="74" rx="1.5" fill="#e3b341" opacity=".15"/>
<circle cx="646" cy="72" r="3.5" fill="#21262d"/>
<text x="582" y="89"  text-anchor="middle" font-size="18" font-family="sans-serif">💡</text>
<text x="582" y="107" text-anchor="middle" class="t" fill="#6e7681" font-size="9">Challenge</text>
<text x="582" y="123" text-anchor="middle" class="t" fill="#30363d" font-size="8">07:15 UTC</text>
<g class="a3" filter="url(#glow)">
  <rect x="507" y="62" width="150" height="74" rx="6" fill="#091829" stroke="#e3b341" stroke-width="1.5"/>
  <rect x="507" y="62" width="3"   height="74" rx="1.5" fill="#e3b341"/>
  <text x="582" y="89"  text-anchor="middle" font-size="18" font-family="sans-serif">💡</text>
  <text x="582" y="107" text-anchor="middle" class="t" fill="#e6edf3" font-size="9" font-weight="bold">Challenge</text>
  <text x="582" y="123" text-anchor="middle" class="t" fill="#8b949e" font-size="8">07:15 UTC</text>
  <circle cx="646" cy="72" r="4.5" fill="#3fb950"/>
  <circle cx="646" cy="72" r="9"   fill="#3fb950" opacity=".25"/>
  <circle cx="582" cy="80" r="10" fill="none" stroke="#e3b341" stroke-width="1.5" stroke-dasharray="16 47" stroke-linecap="round" class="sp"/>
</g>
<text x="661" y="100" text-anchor="middle" fill="#21262d" font-size="13" class="t">›</text>

<!-- CARD 4 · Tool Spotlight · #bc8cff -->
<rect x="669" y="62" width="150" height="74" rx="6" fill="#161b22" stroke="#21262d" stroke-width="1"/>
<rect x="669" y="62" width="3"   height="74" rx="1.5" fill="#bc8cff" opacity=".15"/>
<circle cx="808" cy="72" r="3.5" fill="#21262d"/>
<text x="744" y="89"  text-anchor="middle" font-size="18" font-family="sans-serif">🛠️</text>
<text x="744" y="107" text-anchor="middle" class="t" fill="#6e7681" font-size="9">Tool Spotlight</text>
<text x="744" y="123" text-anchor="middle" class="t" fill="#30363d" font-size="8">08:00 UTC</text>
<g class="a4" filter="url(#glow)">
  <rect x="669" y="62" width="150" height="74" rx="6" fill="#091829" stroke="#bc8cff" stroke-width="1.5"/>
  <rect x="669" y="62" width="3"   height="74" rx="1.5" fill="#bc8cff"/>
  <text x="744" y="89"  text-anchor="middle" font-size="18" font-family="sans-serif">🛠️</text>
  <text x="744" y="107" text-anchor="middle" class="t" fill="#e6edf3" font-size="9" font-weight="bold">Tool Spotlight</text>
  <text x="744" y="123" text-anchor="middle" class="t" fill="#8b949e" font-size="8">08:00 UTC</text>
  <circle cx="808" cy="72" r="4.5" fill="#3fb950"/>
  <circle cx="808" cy="72" r="9"   fill="#3fb950" opacity=".25"/>
  <circle cx="744" cy="80" r="10" fill="none" stroke="#bc8cff" stroke-width="1.5" stroke-dasharray="16 47" stroke-linecap="round" class="sp"/>
</g>

<!-- Row wrap connector -->
<path d="M 819,99 C 833,99 833,167 819,167" fill="none" stroke="#21262d" stroke-width="1" stroke-dasharray="4,3"/>

<!-- ═══════ ROW 2 CARDS (top=152) ═══════ -->

<!-- CARD 5 · Prompt · #56d364 -->
<rect x="21"  y="152" width="150" height="74" rx="6" fill="#161b22" stroke="#21262d" stroke-width="1"/>
<rect x="21"  y="152" width="3"   height="74" rx="1.5" fill="#56d364" opacity=".15"/>
<circle cx="160" cy="162" r="3.5" fill="#21262d"/>
<text x="96"  y="179" text-anchor="middle" font-size="18" font-family="sans-serif">🎯</text>
<text x="96"  y="197" text-anchor="middle" class="t" fill="#6e7681" font-size="9">Prompt</text>
<text x="96"  y="213" text-anchor="middle" class="t" fill="#30363d" font-size="8">08:15 UTC</text>
<g class="a5" filter="url(#glow)">
  <rect x="21"  y="152" width="150" height="74" rx="6" fill="#091829" stroke="#56d364" stroke-width="1.5"/>
  <rect x="21"  y="152" width="3"   height="74" rx="1.5" fill="#56d364"/>
  <text x="96"  y="179" text-anchor="middle" font-size="18" font-family="sans-serif">🎯</text>
  <text x="96"  y="197" text-anchor="middle" class="t" fill="#e6edf3" font-size="9" font-weight="bold">Prompt</text>
  <text x="96"  y="213" text-anchor="middle" class="t" fill="#8b949e" font-size="8">08:15 UTC</text>
  <circle cx="160" cy="162" r="4.5" fill="#3fb950"/>
  <circle cx="160" cy="162" r="9"   fill="#3fb950" opacity=".25"/>
  <circle cx="96" cy="170" r="10" fill="none" stroke="#56d364" stroke-width="1.5" stroke-dasharray="16 47" stroke-linecap="round" class="sp"/>
</g>
<text x="175" y="190" text-anchor="middle" fill="#21262d" font-size="13" class="t">›</text>

<!-- CARD 6 · Security · #f85149 -->
<rect x="183" y="152" width="150" height="74" rx="6" fill="#161b22" stroke="#21262d" stroke-width="1"/>
<rect x="183" y="152" width="3"   height="74" rx="1.5" fill="#f85149" opacity=".15"/>
<circle cx="322" cy="162" r="3.5" fill="#21262d"/>
<text x="258" y="179" text-anchor="middle" font-size="18" font-family="sans-serif">🔐</text>
<text x="258" y="197" text-anchor="middle" class="t" fill="#6e7681" font-size="9">Security</text>
<text x="258" y="213" text-anchor="middle" class="t" fill="#30363d" font-size="8">09:00 UTC</text>
<g class="a6" filter="url(#glow)">
  <rect x="183" y="152" width="150" height="74" rx="6" fill="#091829" stroke="#f85149" stroke-width="1.5"/>
  <rect x="183" y="152" width="3"   height="74" rx="1.5" fill="#f85149"/>
  <text x="258" y="179" text-anchor="middle" font-size="18" font-family="sans-serif">🔐</text>
  <text x="258" y="197" text-anchor="middle" class="t" fill="#e6edf3" font-size="9" font-weight="bold">Security</text>
  <text x="258" y="213" text-anchor="middle" class="t" fill="#8b949e" font-size="8">09:00 UTC</text>
  <circle cx="322" cy="162" r="4.5" fill="#3fb950"/>
  <circle cx="322" cy="162" r="9"   fill="#3fb950" opacity=".25"/>
  <circle cx="258" cy="170" r="10" fill="none" stroke="#f85149" stroke-width="1.5" stroke-dasharray="16 47" stroke-linecap="round" class="sp"/>
</g>
<text x="337" y="190" text-anchor="middle" fill="#21262d" font-size="13" class="t">›</text>

<!-- CARD 7 · Market Pulse · #79c0ff -->
<rect x="345" y="152" width="150" height="74" rx="6" fill="#161b22" stroke="#21262d" stroke-width="1"/>
<rect x="345" y="152" width="3"   height="74" rx="1.5" fill="#79c0ff" opacity=".15"/>
<circle cx="484" cy="162" r="3.5" fill="#21262d"/>
<text x="420" y="179" text-anchor="middle" font-size="18" font-family="sans-serif">📊</text>
<text x="420" y="197" text-anchor="middle" class="t" fill="#6e7681" font-size="9">Market Pulse</text>
<text x="420" y="213" text-anchor="middle" class="t" fill="#30363d" font-size="8">09:15 UTC</text>
<g class="a7" filter="url(#glow)">
  <rect x="345" y="152" width="150" height="74" rx="6" fill="#091829" stroke="#79c0ff" stroke-width="1.5"/>
  <rect x="345" y="152" width="3"   height="74" rx="1.5" fill="#79c0ff"/>
  <text x="420" y="179" text-anchor="middle" font-size="18" font-family="sans-serif">📊</text>
  <text x="420" y="197" text-anchor="middle" class="t" fill="#e6edf3" font-size="9" font-weight="bold">Market Pulse</text>
  <text x="420" y="213" text-anchor="middle" class="t" fill="#8b949e" font-size="8">09:15 UTC</text>
  <circle cx="484" cy="162" r="4.5" fill="#3fb950"/>
  <circle cx="484" cy="162" r="9"   fill="#3fb950" opacity=".25"/>
  <circle cx="420" cy="170" r="10" fill="none" stroke="#79c0ff" stroke-width="1.5" stroke-dasharray="16 47" stroke-linecap="round" class="sp"/>
</g>
<text x="499" y="190" text-anchor="middle" fill="#21262d" font-size="13" class="t">›</text>

<!-- CARD 8 · Learning Pick · #ffa657 -->
<rect x="507" y="152" width="150" height="74" rx="6" fill="#161b22" stroke="#21262d" stroke-width="1"/>
<rect x="507" y="152" width="3"   height="74" rx="1.5" fill="#ffa657" opacity=".15"/>
<circle cx="646" cy="162" r="3.5" fill="#21262d"/>
<text x="582" y="179" text-anchor="middle" font-size="18" font-family="sans-serif">📚</text>
<text x="582" y="197" text-anchor="middle" class="t" fill="#6e7681" font-size="9">Learning Pick</text>
<text x="582" y="213" text-anchor="middle" class="t" fill="#30363d" font-size="8">10:00 UTC</text>
<g class="a8" filter="url(#glow)">
  <rect x="507" y="152" width="150" height="74" rx="6" fill="#091829" stroke="#ffa657" stroke-width="1.5"/>
  <rect x="507" y="152" width="3"   height="74" rx="1.5" fill="#ffa657"/>
  <text x="582" y="179" text-anchor="middle" font-size="18" font-family="sans-serif">📚</text>
  <text x="582" y="197" text-anchor="middle" class="t" fill="#e6edf3" font-size="9" font-weight="bold">Learning Pick</text>
  <text x="582" y="213" text-anchor="middle" class="t" fill="#8b949e" font-size="8">10:00 UTC</text>
  <circle cx="646" cy="162" r="4.5" fill="#3fb950"/>
  <circle cx="646" cy="162" r="9"   fill="#3fb950" opacity=".25"/>
  <circle cx="582" cy="170" r="10" fill="none" stroke="#ffa657" stroke-width="1.5" stroke-dasharray="16 47" stroke-linecap="round" class="sp"/>
</g>
<text x="661" y="190" text-anchor="middle" fill="#21262d" font-size="13" class="t">›</text>

<!-- CARD 9 · Daily Index · #38bdf8 -->
<rect x="669" y="152" width="150" height="74" rx="6" fill="#161b22" stroke="#21262d" stroke-width="1"/>
<rect x="669" y="152" width="3"   height="74" rx="1.5" fill="#38bdf8" opacity=".15"/>
<circle cx="808" cy="162" r="3.5" fill="#21262d"/>
<text x="744" y="179" text-anchor="middle" font-size="18" font-family="sans-serif">🗓️</text>
<text x="744" y="197" text-anchor="middle" class="t" fill="#6e7681" font-size="9">Daily Index</text>
<text x="744" y="213" text-anchor="middle" class="t" fill="#30363d" font-size="8">10:15 UTC</text>
<g class="a9" filter="url(#glow)">
  <rect x="669" y="152" width="150" height="74" rx="6" fill="#091829" stroke="#38bdf8" stroke-width="1.5"/>
  <rect x="669" y="152" width="3"   height="74" rx="1.5" fill="#38bdf8"/>
  <text x="744" y="179" text-anchor="middle" font-size="18" font-family="sans-serif">🗓️</text>
  <text x="744" y="197" text-anchor="middle" class="t" fill="#e6edf3" font-size="9" font-weight="bold">Daily Index</text>
  <text x="744" y="213" text-anchor="middle" class="t" fill="#8b949e" font-size="8">10:15 UTC</text>
  <circle cx="808" cy="162" r="4.5" fill="#3fb950"/>
  <circle cx="808" cy="162" r="9"   fill="#3fb950" opacity=".25"/>
  <circle cx="744" cy="170" r="10" fill="none" stroke="#38bdf8" stroke-width="1.5" stroke-dasharray="16 47" stroke-linecap="round" class="sp"/>
</g>

<!-- ══ ACTIVE JOB INFO BAR ══ -->
<rect x="21" y="238" width="798" height="24" rx="4" fill="#161b22" stroke="#21262d" stroke-width="1"/>
<text x="35" y="254" class="t" fill="#30363d" font-size="9">▶  waiting for next scheduled run...</text>
<g class="a0"><text x="35" y="254" class="t" fill="#8b949e" font-size="9">▶  <tspan fill="#58a6ff" font-weight="bold">Tech News Digest</tspan>  ·  git commit -m "📰 Top AI &amp; dev stories summarized by Gemini AI"</text></g>
<g class="a1"><text x="35" y="254" class="t" fill="#8b949e" font-size="9">▶  <tspan fill="#ff7b72" font-weight="bold">GitHub Trending</tspan>    ·  git commit -m "🔥 Today's 10 hottest repos archived"</text></g>
<g class="a2"><text x="35" y="254" class="t" fill="#8b949e" font-size="9">▶  <tspan fill="#3fb950" font-weight="bold">AI Research</tspan>        ·  git commit -m "🤖 arXiv paper explained in plain English"</text></g>
<g class="a3"><text x="35" y="254" class="t" fill="#8b949e" font-size="9">▶  <tspan fill="#e3b341" font-weight="bold">Coding Challenge</tspan>   ·  git commit -m "💡 Daily problem + optimal solution committed"</text></g>
<g class="a4"><text x="35" y="254" class="t" fill="#8b949e" font-size="9">▶  <tspan fill="#bc8cff" font-weight="bold">Tool Spotlight</tspan>     ·  git commit -m "🛠️ One dev tool worth knowing about"</text></g>
<g class="a5"><text x="35" y="254" class="t" fill="#8b949e" font-size="9">▶  <tspan fill="#56d364" font-weight="bold">Prompt of the Day</tspan>  ·  git commit -m "🎯 Battle-tested LLM prompt curated"</text></g>
<g class="a6"><text x="35" y="254" class="t" fill="#8b949e" font-size="9">▶  <tspan fill="#f85149" font-weight="bold">Security Pulse</tspan>     ·  git commit -m "🔐 Critical CVEs &amp; advisories summarized"</text></g>
<g class="a7"><text x="35" y="254" class="t" fill="#8b949e" font-size="9">▶  <tspan fill="#79c0ff" font-weight="bold">Market Pulse</tspan>       ·  git commit -m "📊 AI job market &amp; trending skills signal"</text></g>
<g class="a8"><text x="35" y="254" class="t" fill="#8b949e" font-size="9">▶  <tspan fill="#ffa657" font-weight="bold">Learning Pick</tspan>      ·  git commit -m "📚 Best tutorial or talk of the day"</text></g>
<g class="a9"><text x="35" y="254" class="t" fill="#8b949e" font-size="9">▶  <tspan fill="#38bdf8" font-weight="bold">Daily Index</tspan>        ·  git commit -m "🗓️ Master index &amp; archive stats updated"</text></g>

<!-- ══ PROGRESS BAR ══ -->
<text x="21"  y="276" class="t" fill="#484f58" font-size="7.5">DAILY PROGRESS</text>
<rect x="21"  y="281" width="798" height="5" rx="2.5" fill="#161b22" stroke="#21262d" stroke-width="1"/>
<rect x="21"  y="281" width="0"   height="5" rx="2.5" fill="#38bdf8" class="pb"/>
<text x="21"  y="295" class="t" fill="#484f58" font-size="7.5">06:00</text>
<text x="221" y="295" class="t" fill="#484f58" font-size="7.5" text-anchor="middle">06:15</text>
<text x="381" y="295" class="t" fill="#484f58" font-size="7.5" text-anchor="middle">07:15</text>
<text x="541" y="295" class="t" fill="#484f58" font-size="7.5" text-anchor="middle">08:15</text>
<text x="701" y="295" class="t" fill="#484f58" font-size="7.5" text-anchor="middle">09:15</text>
<text x="819" y="295" class="t" fill="#484f58" font-size="7.5" text-anchor="end">10:15</text>

<!-- ══ FOOTER ══ -->
<text x="420" y="315" text-anchor="middle" class="t bl" fill="#38bdf8" font-size="10">↻  resets at midnight · loops every 24h · powered by GitHub Actions + Gemini AI</text>
</svg>
